<svg width="0" height="0" class="hidden">
  <symbol fill="none" xmlns="http://www.w3.org/2000/svg" viewBox="0 0 24 24" id="sun">
    <path d="M12 18.5C15.5899 18.5 18.5 15.5899 18.5 12C18.5 8.41015 15.5899 5.5 12 5.5C8.41015 5.5 5.5 8.41015 5.5 12C5.5 15.5899 8.41015 18.5 12 18.5Z"  stroke-width="1.5" stroke-linecap="round" stroke-linejoin="round"></path>
    <path d="M19.14 19.14L19.01 19.01M19.01 4.99L19.14 4.86L19.01 4.99ZM4.86 19.14L4.99 19.01L4.86 19.14ZM12 2.08V2V2.08ZM12 22V21.92V22ZM2.08 12H2H2.08ZM22 12H21.92H22ZM4.99 4.99L4.86 4.86L4.99 4.99Z" stroke-width="2" stroke-linecap="round" stroke-linejoin="round"></path>
  </symbol>
  <symbol fill="none" xmlns="http://www.w3.org/2000/svg" viewBox="0 0 24 24" id="monitor">
    <path d="M6.44 2H17.55C21.11 2 22 2.89 22 6.44V12.77C22 16.33 21.11 17.21 17.56 17.21H6.44C2.89 17.22 2 16.33 2 12.78V6.44C2 2.89 2.89 2 6.44 2Z"  stroke-width="1.5" stroke-linecap="round" stroke-linejoin="round"></path>
    <path d="M12 17.2202V22.0002"  stroke-width="1.5" stroke-linecap="round" stroke-linejoin="round"></path>
    <path d="M2 13H22"  stroke-width="1.5" stroke-linecap="round" stroke-linejoin="round"></path>
    <path d="M7.5 22H16.5"  stroke-width="1.5" stroke-linecap="round" stroke-linejoin="round"></path>
  </symbol>
    <symbol fill="none" xmlns="http://www.w3.org/2000/svg" viewBox="0 0 24 24" id="clock">
        <path
            d="M22 12C22 17.52 17.52 22 12 22C6.48 22 2 17.52 2 12C2 6.48 6.48 2 12 2C17.52 2 22 6.48 22 12Z"
            stroke-width="1.5" stroke-linecap="round" stroke-linejoin="round"></path>
        <path d="M15.7089 15.18L12.6089 13.33C12.0689 13.01 11.6289 12.24 11.6289 11.61V7.51001"
            stroke-width="1.5" stroke-linecap="round" stroke-linejoin="round"></path>
    </symbol>
    <symbol fill="none" xmlns="http://www.w3.org/2000/svg" viewBox="0 0 24 24" id="house-2">
        <path d="M2 22H22" stroke-width="1.5" stroke-miterlimit="10"
            stroke-linecap="round" stroke-linejoin="round"></path>
        <path
            d="M2.94922 22L2.99922 9.96999C2.99922 9.35999 3.28922 8.78004 3.76922 8.40004L10.7692 2.95003C11.4892 2.39003 12.4992 2.39003 13.2292 2.95003L20.2292 8.39003C20.7192 8.77003 20.9992 9.34999 20.9992 9.96999V22"
            stroke-width="1.5" stroke-miterlimit="10" stroke-linejoin="round"></path>
        <path d="M15.5 11H8.5C7.67 11 7 11.67 7 12.5V22H17V12.5C17 11.67 16.33 11 15.5 11Z"
            stroke-width="1.5" stroke-miterlimit="10" stroke-linecap="round"
            stroke-linejoin="round"></path>
        <path d="M10 16.25V17.75" stroke-width="1.5" stroke-miterlimit="10"
            stroke-linecap="round" stroke-linejoin="round"></path>
        <path d="M10.5 7.5H13.5" stroke-width="1.5" stroke-miterlimit="10"
            stroke-linecap="round" stroke-linejoin="round"></path>
    </symbol>
    <symbol fill="none" xmlns="http://www.w3.org/2000/svg" viewBox="0 0 24 24" id="setting-2">
        <path
            d="M12 15C13.6569 15 15 13.6569 15 12C15 10.3431 13.6569 9 12 9C10.3431 9 9 10.3431 9 12C9 13.6569 10.3431 15 12 15Z" />
        stroke-width="1.5" stroke-miterlimit="10" stroke-linecap="round" stroke-linejoin="round">
    <path
            d="M2 12.8799V11.1199C2 10.0799 2.85 9.21994 3.9 9.21994C5.71 9.21994 6.45 7.93994 5.54 6.36994C5.02 5.46994 5.33 4.29994 6.24 3.77994L7.97 2.78994C8.76 2.31994 9.78 2.59994 10.25 3.38994L10.36 3.57994C11.26 5.14994 12.74 5.14994 13.65 3.57994L13.76 3.38994C14.23 2.59994 15.25 2.31994 16.04 2.78994L17.77 3.77994C18.68 4.29994 18.99 5.46994 18.47 6.36994C17.56 7.93994 18.3 9.21994 20.11 9.21994C21.15 9.21994 22.01 10.0699 22.01 11.1199V12.8799C22.01 13.9199 21.16 14.7799 20.11 14.7799C18.3 14.7799 17.56 16.0599 18.47 17.6299C18.99 18.5399 18.68 19.6999 17.77 20.2199L16.04 21.2099C15.25 21.6799 14.23 21.3999 13.76 20.6099L13.65 20.4199C12.75 18.8499 11.27 18.8499 10.36 20.4199L10.25 20.6099C9.78 21.3999 8.76 21.6799 7.97 21.2099L6.24 20.2199C5.33 19.6999 5.02 18.5299 5.54 17.6299C6.45 16.0599 5.71 14.7799 3.9 14.7799C2.85 14.7799 2 13.9199 2 12.8799Z"
            stroke-width="1.5" stroke-miterlimit="10" stroke-linecap="round"
            stroke-linejoin="round"></path>
    </symbol>
    <symbol fill="none" xmlns="http://www.w3.org/2000/svg" viewBox="0 0 19 19" id="tick-circle">
        <path
            d="M9.50065 17.4167C13.8548 17.4167 17.4173 13.8542 17.4173 9.50004C17.4173 5.14587 13.8548 1.58337 9.50065 1.58337C5.14648 1.58337 1.58398 5.14587 1.58398 9.50004C1.58398 13.8542 5.14648 17.4167 9.50065 17.4167Z"
            stroke-width="1.5" stroke-linecap="round" stroke-linejoin="round"></path>
        <path d="M6.13477 9.50006L8.37518 11.7405L12.8639 7.25964" stroke-width="1.5"
            stroke-linecap="round" stroke-linejoin="round"></path>
    </symbol>

    <symbol fill="none" xmlns="http://www.w3.org/2000/svg" viewBox="0 0 24 24" id="note-2">
        <path d="M8 2V5" stroke-width="1.5" stroke-miterlimit="10"
            stroke-linecap="round" stroke-linejoin="round"></path>
        <path d="M16 2V5" stroke-width="1.5" stroke-miterlimit="10"
            stroke-linecap="round" stroke-linejoin="round"></path>
        <path d="M7 13H15" stroke-width="1.5" stroke-miterlimit="10"
            stroke-linecap="round" stroke-linejoin="round"></path>
        <path d="M7 17H12" stroke-width="1.5" stroke-miterlimit="10"
            stroke-linecap="round" stroke-linejoin="round"></path>
        <path
            d="M16 3.5C19.33 3.68 21 4.95 21 9.65V15.83C21 19.95 20 22.01 15 22.01H9C4 22.01 3 19.95 3 15.83V9.65C3 4.95 4.67 3.69 8 3.5H16Z"
            stroke-width="1.5" stroke-miterlimit="10" stroke-linecap="round"
            stroke-linejoin="round"></path>
    </symbol>
    <symbol fill="none" xmlns="http://www.w3.org/2000/svg" viewBox="0 0 24 24" id="add">
        <path d="M6 12H18" stroke-width="1.5" stroke-linecap="round" stroke-linejoin="round"></path>
        <path d="M12 18V6" stroke-width="1.5" stroke-linecap="round" stroke-linejoin="round"></path>
    </symbol>
    <symbol fill="none" xmlns="http://www.w3.org/2000/svg" viewBox="0 0 24 24" id="item">
        <path
            d="M22 6V8.42C22 10 21 11 19.42 11H16V4.01C16 2.9 16.91 2 18.02 2C19.11 2.01 20.11 2.45 20.83 3.17C21.55 3.9 22 4.9 22 6Z"
            stroke-width="1.5" stroke-miterlimit="10" stroke-linecap="round" stroke-linejoin="round"></path>
        <path
            d="M2 7V21C2 21.83 2.94 22.3 3.6 21.8L5.31 20.52C5.71 20.22 6.27 20.26 6.63 20.62L8.29 22.29C8.68 22.68 9.32 22.68 9.71 22.29L11.39 20.61C11.74 20.26 12.3 20.22 12.69 20.52L14.4 21.8C15.06 22.29 16 21.82 16 21V4C16 2.9 16.9 2 18 2H7H6C3 2 2 3.79 2 6V7Z"
            stroke-width="1.5" stroke-miterlimit="10" stroke-linecap="round" stroke-linejoin="round"></path>
        <path d="M9 13.01H12" stroke-width="1.5" stroke-linecap="round" stroke-linejoin="round"></path>
        <path d="M9 9.01001H12" stroke-width="1.5" stroke-linecap="round" stroke-linejoin="round"></path>
        <path d="M5.99609 13H6.00508" stroke-width="2" stroke-linecap="round"
            stroke-linejoin="round"></path>
        <path d="M5.99609 9H6.00508" stroke-width="2" stroke-linecap="round" stroke-linejoin="round"></path>
    </symbol>
    <symbol fill="none" xmlns="http://www.w3.org/2000/svg" viewBox="0 0 12 12" id="trash">
        <path
            d="M10.5 2.98999C8.835 2.82499 7.16 2.73999 5.49 2.73999C4.5 2.73999 3.51 2.78999 2.52 2.88999L1.5 2.98999"
            stroke-linecap="round" stroke-linejoin="round"></path>
        <path
            d="M4.25 2.485L4.36 1.83C4.44 1.355 4.5 1 5.345 1H6.655C7.5 1 7.565 1.375 7.64 1.835L7.75 2.485"
            stroke-linecap="round" stroke-linejoin="round"></path>
        <path
            d="M9.42422 4.57001L9.09922 9.60501C9.04422 10.39 8.99922 11 7.60422 11H4.39422C2.99922 11 2.95422 10.39 2.89922 9.60501L2.57422 4.57001"
            stroke-linecap="round" stroke-linejoin="round"></path>
        <path d="M5.16406 8.25H6.82906" stroke-linecap="round" stroke-linejoin="round"></path>
        <path d="M4.75 6.25H7.25" stroke-linecap="round" stroke-linejoin="round"></path>
    </symbol>
    <symbol fill="none" xmlns="http://www.w3.org/2000/svg" viewBox="0 0 24 24" id="more">
        <path d="M5 10C3.9 10 3 10.9 3 12C3 13.1 3.9 14 5 14C6.1 14 7 13.1 7 12C7 10.9 6.1 10 5 10Z"
            stroke-width="1.5"></path>
        <path
            d="M19 10C17.9 10 17 10.9 17 12C17 13.1 17.9 14 19 14C20.1 14 21 13.1 21 12C21 10.9 20.1 10 19 10Z"
            stroke-width="1.5"></path>
        <path
            d="M12 10C10.9 10 10 10.9 10 12C10 13.1 10.9 14 12 14C13.1 14 14 13.1 14 12C14 10.9 13.1 10 12 10Z"
            stroke-width="1.5"></path>
    </symbol>
    <symbol fill="none" xmlns="http://www.w3.org/2000/svg" viewBox="0 0 11 11" id="edit">
        <path
            d="M5.04102 0.916656H4.12435C1.83268 0.916656 0.916016 1.83332 0.916016 4.12499V6.87499C0.916016 9.16666 1.83268 10.0833 4.12435 10.0833H6.87435C9.16602 10.0833 10.0827 9.16666 10.0827 6.87499V5.95832"
            stroke-linecap="round" stroke-linejoin="round"></path>
        <path
            d="M7.35137 1.38416L3.7397 4.99583C3.6022 5.13333 3.4647 5.40374 3.4372 5.60083L3.24012 6.98041C3.16678 7.47999 3.5197 7.82833 4.01928 7.75958L5.39887 7.56249C5.59137 7.53499 5.86178 7.39749 6.00387 7.25999L9.61553 3.64833C10.2389 3.02499 10.5322 2.30083 9.61553 1.38416C8.69887 0.467494 7.9747 0.760827 7.35137 1.38416Z"
            stroke-miterlimit="10" stroke-linecap="round" stroke-linejoin="round"></path>
        <path d="M6.83398 1.90207C7.14107 2.99749 7.99815 3.85457 9.09815 4.16624"
            stroke-miterlimit="10" stroke-linecap="round" stroke-linejoin="round"></path>
    </symbol>
    <symbol fill="none" xmlns="http://www.w3.org/2000/svg" viewBox="0 0 24 24" id="house">
        <path d="M2 22H22" stroke-width="1.5" stroke-miterlimit="10"
            stroke-linecap="round" stroke-linejoin="round"></path>
        <path
            d="M2.94922 22L2.99922 9.96999C2.99922 9.35999 3.28922 8.78004 3.76922 8.40004L10.7692 2.95003C11.4892 2.39003 12.4992 2.39003 13.2292 2.95003L20.2292 8.39003C20.7192 8.77003 20.9992 9.34999 20.9992 9.96999V22"
            stroke-width="1.5" stroke-miterlimit="10" stroke-linejoin="round"></path>
        <path d="M13 17H11C10.17 17 9.5 17.67 9.5 18.5V22H14.5V18.5C14.5 17.67 13.83 17 13 17Z"
            stroke-width="1.5" stroke-miterlimit="10" stroke-linejoin="round"></path>
        <path
            d="M9.5 13.75H7.5C6.95 13.75 6.5 13.3 6.5 12.75V11.25C6.5 10.7 6.95 10.25 7.5 10.25H9.5C10.05 10.25 10.5 10.7 10.5 11.25V12.75C10.5 13.3 10.05 13.75 9.5 13.75Z"
            stroke-width="1.5" stroke-miterlimit="10" stroke-linejoin="round"></path>
        <path
            d="M16.5 13.75H14.5C13.95 13.75 13.5 13.3 13.5 12.75V11.25C13.5 10.7 13.95 10.25 14.5 10.25H16.5C17.05 10.25 17.5 10.7 17.5 11.25V12.75C17.5 13.3 17.05 13.75 16.5 13.75Z"
            stroke-width="1.5" stroke-miterlimit="10" stroke-linejoin="round"></path>
        <path d="M19.0003 7L18.9703 4H14.5703" stroke-width="1.5"
            stroke-miterlimit="10" stroke-linecap="round" stroke-linejoin="round"></path>
    </symbol>

    <symbol fill="none" xmlns="http://www.w3.org/2000/svg" viewBox="0 0 24 24" id="strongbox">
        <path d="M9 22H15C20 22 22 20 22 15V9C22 4 20 2 15 2H9C4 2 2 4 2 9V15C2 20 4 22 9 22Z"
            stroke-width="1.5" stroke-linecap="round" stroke-linejoin="round"></path>
        <path
            d="M14.3511 10.9101C14.2511 11.6201 13.8311 12.2201 13.2511 12.5801V14.5601C13.2511 15.2501 12.6911 15.8101 12.0011 15.8101C11.3111 15.8101 10.7511 15.2501 10.7511 14.5601V12.5801C10.1711 12.2201 9.75109 11.6201 9.65109 10.9101C9.63109 10.8001 9.62109 10.6801 9.62109 10.5601C9.62109 9.04012 11.0611 7.86012 12.6411 8.28012C13.4411 8.49012 14.0911 9.14012 14.3011 9.94012C14.3911 10.2701 14.4011 10.6001 14.3511 10.9101Z"
            stroke-width="1.5" stroke-miterlimit="10"></path>
        <path d="M22.0016 10.9102H14.3516" stroke-width="1.5" stroke-miterlimit="10"></path>
        <path d="M9.64999 10.9099H2" stroke-width="1.5" stroke-miterlimit="10"></path>
    </symbol>

    <symbol fill="none" xmlns="http://www.w3.org/2000/svg" viewBox="0 0 24 24" id="cpu">
        <path
            d="M9.6 20H14.4C18.4 20 20 18.4 20 14.4V9.6C20 5.6 18.4 4 14.4 4H9.6C5.6 4 4 5.6 4 9.6V14.4C4 18.4 5.6 20 9.6 20Z"
            stroke-width="1.5" stroke-linecap="round" stroke-linejoin="round"></path>
        <path
            d="M10.5 17H13.5C16 17 17 16 17 13.5V10.5C17 8 16 7 13.5 7H10.5C8 7 7 8 7 10.5V13.5C7 16 8 17 10.5 17Z"
            stroke-width="1.5" stroke-linecap="round" stroke-linejoin="round"></path>
        <path d="M8.00977 4V2" stroke-width="1.5" stroke-linecap="round" stroke-linejoin="round"></path>
        <path d="M12 4V2" stroke-width="1.5" stroke-linecap="round" stroke-linejoin="round"></path>
        <path d="M16 4V2" stroke-width="1.5" stroke-linecap="round" stroke-linejoin="round"></path>
        <path d="M20 8H22" stroke-width="1.5" stroke-linecap="round" stroke-linejoin="round"></path>
        <path d="M20 12H22" stroke-width="1.5" stroke-linecap="round" stroke-linejoin="round"></path>
        <path d="M20 16H22" stroke-width="1.5" stroke-linecap="round" stroke-linejoin="round"></path>
        <path d="M16 20V22" stroke-width="1.5" stroke-linecap="round" stroke-linejoin="round"></path>
        <path d="M12.0098 20V22" stroke-width="1.5" stroke-linecap="round" stroke-linejoin="round"></path>
        <path d="M8.00977 20V22" stroke-width="1.5" stroke-linecap="round" stroke-linejoin="round"></path>
        <path d="M2 8H4" stroke-width="1.5" stroke-linecap="round" stroke-linejoin="round"></path>
        <path d="M2 12H4" stroke-width="1.5" stroke-linecap="round" stroke-linejoin="round"></path>
        <path d="M2 16H4" stroke-width="1.5" stroke-linecap="round" stroke-linejoin="round"></path>
    </symbol>
    <symbol fill="none" xmlns="http://www.w3.org/2000/svg" viewBox="0 0 24 24" id="teacher">
        <path
            d="M10.0495 2.53004L4.02953 6.46004C2.09953 7.72004 2.09953 10.54 4.02953 11.8L10.0495 15.73C11.1295 16.44 12.9095 16.44 13.9895 15.73L19.9795 11.8C21.8995 10.54 21.8995 7.73004 19.9795 6.47004L13.9895 2.54004C12.9095 1.82004 11.1295 1.82004 10.0495 2.53004Z"
            stroke-width="1.5" stroke-linecap="round" stroke-linejoin="round"></path>
        <path
            d="M5.62914 13.08L5.61914 17.77C5.61914 19.04 6.59914 20.4 7.79914 20.8L10.9891 21.86C11.5391 22.04 12.4491 22.04 13.0091 21.86L16.1991 20.8C17.3991 20.4 18.3791 19.04 18.3791 17.77V13.13"
            stroke-width="1.5" stroke-linecap="round" stroke-linejoin="round"></path>
        <path d="M21.4004 15V9" stroke-width="1.5" stroke-linecap="round" stroke-linejoin="round"></path>
    </symbol>
    <symbol fill="none" xmlns="http://www.w3.org/2000/svg" viewBox="0 0 24 24" id="note">
        <path
            d="M21.6602 10.44L20.6802 14.62C19.8402 18.23 18.1802 19.69 15.0602 19.39C14.5602 19.35 14.0202 19.26 13.4402 19.12L11.7602 18.72C7.59018 17.73 6.30018 15.67 7.28018 11.49L8.26018 7.30001C8.46018 6.45001 8.70018 5.71001 9.00018 5.10001C10.1702 2.68001 12.1602 2.03001 15.5002 2.82001L17.1702 3.21001C21.3602 4.19001 22.6402 6.26001 21.6602 10.44Z"
            stroke-width="1.5" stroke-linecap="round" stroke-linejoin="round"></path>
        <path
            d="M15.0603 19.39C14.4403 19.81 13.6603 20.16 12.7103 20.47L11.1303 20.99C7.16034 22.27 5.07034 21.2 3.78034 17.23L2.50034 13.28C1.22034 9.30998 2.28034 7.20998 6.25034 5.92998L7.83034 5.40998C8.24034 5.27998 8.63034 5.16998 9.00034 5.09998C8.70034 5.70998 8.46034 6.44998 8.26034 7.29998L7.28034 11.49C6.30034 15.67 7.59034 17.73 11.7603 18.72L13.4403 19.12C14.0203 19.26 14.5603 19.35 15.0603 19.39Z"
            stroke-width="1.5" stroke-linecap="round" stroke-linejoin="round"></path>
        <path d="M12.6406 8.53003L17.4906 9.76003" stroke-width="1.5" stroke-linecap="round"
            stroke-linejoin="round"></path>
        <path d="M11.6602 12.4L14.5602 13.14" stroke-width="1.5" stroke-linecap="round"
            stroke-linejoin="round"></path>
    </symbol>
    <symbol fill="none" xmlns="http://www.w3.org/2000/svg" viewBox="0 0 24 24" id="clipboard">
        <path d="M8 12.2H15" stroke-width="1.5" stroke-miterlimit="10"
            stroke-linecap="round" stroke-linejoin="round"></path>
        <path d="M8 16.2H12.38" stroke-width="1.5" stroke-miterlimit="10"
            stroke-linecap="round" stroke-linejoin="round"></path>
        <path d="M10 6H14C16 6 16 5 16 4C16 2 15 2 14 2H10C9 2 8 2 8 4C8 6 9 6 10 6Z"
            stroke-width="1.5" stroke-miterlimit="10" stroke-linecap="round"
            stroke-linejoin="round"></path>
        <path
            d="M16 4.02002C19.33 4.20002 21 5.43002 21 10V16C21 20 20 22 15 22H9C4 22 3 20 3 16V10C3 5.44002 4.67 4.20002 8 4.02002"
            stroke-width="1.5" stroke-miterlimit="10" stroke-linecap="round"
            stroke-linejoin="round"></path>
    </symbol>
    <symbol fill="none" xmlns="http://www.w3.org/2000/svg" viewBox="0 0 24 24" id="period">
        <path d="M8 2V5" stroke-width="1.5" stroke-miterlimit="10" stroke-linecap="round"
            stroke-linejoin="round"></path>
        <path d="M16 2V5" stroke-width="1.5" stroke-miterlimit="10" stroke-linecap="round"
            stroke-linejoin="round"></path>
        <path d="M3.5 9.09H20.5" stroke-width="1.5" stroke-miterlimit="10" stroke-linecap="round"
            stroke-linejoin="round"></path>
        <path
            d="M21 8.5V17C21 20 19.5 22 16 22H8C4.5 22 3 20 3 17V8.5C3 5.5 4.5 3.5 8 3.5H16C19.5 3.5 21 5.5 21 8.5Z"
            stroke-width="1.5" stroke-miterlimit="10" stroke-linecap="round" stroke-linejoin="round"></path>
        <path d="M15.6937 13.7H15.7027" stroke-width="2" stroke-linecap="round"
            stroke-linejoin="round"></path>
        <path d="M15.6937 16.7H15.7027" stroke-width="2" stroke-linecap="round"
            stroke-linejoin="round"></path>
        <path d="M11.9945 13.7H12.0035" stroke-width="2" stroke-linecap="round"
            stroke-linejoin="round"></path>
        <path d="M11.9945 16.7H12.0035" stroke-width="2" stroke-linecap="round"
            stroke-linejoin="round"></path>
        <path d="M8.29529 13.7H8.30427" stroke-width="2" stroke-linecap="round"
            stroke-linejoin="round"></path>
        <path d="M8.29529 16.7H8.30427" stroke-width="2" stroke-linecap="round"
            stroke-linejoin="round"></path>
    </symbol>
    <symbol fill="none" xmlns="http://www.w3.org/2000/svg" viewBox="0 0 24 24" id="project">
        <path
            d="M18.63 7.15014C18.67 7.76014 18.62 8.45014 18.5 9.22014L17.77 13.9101C17.15 17.8201 15.34 19.1401 11.43 18.5301L6.73999 17.7901C5.38999 17.5801 4.34999 17.2201 3.58999 16.6801C2.13999 15.6701 1.71999 14.0101 2.11999 11.4501L2.85999 6.76014C3.47999 2.85014 5.28999 1.53014 9.19999 2.14014L13.89 2.88014C17.03 3.37014 18.5 4.65014 18.63 7.15014Z"
            stroke-width="1.5" stroke-linecap="round" stroke-linejoin="round"></path>
        <path
            d="M20.4998 13.4699L18.9998 17.9799C17.7498 21.7399 15.7498 22.7399 11.9898 21.4899L7.47984 19.9899C5.20984 19.2399 3.94984 18.1999 3.58984 16.6799C4.34984 17.2199 5.38984 17.5799 6.73984 17.7899L11.4298 18.5299C15.3398 19.1399 17.1498 17.8199 17.7698 13.9099L18.4998 9.2199C18.6198 8.4499 18.6698 7.7599 18.6298 7.1499C21.0198 8.4199 21.5398 10.3399 20.4998 13.4699Z"
            stroke-width="1.5" stroke-linecap="round" stroke-linejoin="round"></path>
        <path
            d="M8.24 8.98C9.20098 8.98 9.98 8.20098 9.98 7.24C9.98 6.27902 9.20098 5.5 8.24 5.5C7.27902 5.5 6.5 6.27902 6.5 7.24C6.5 8.20098 7.27902 8.98 8.24 8.98Z"
            stroke-width="1.5" stroke-linecap="round" stroke-linejoin="round"></path>
    </symbol>
    <symbol fill="none" xmlns="http://www.w3.org/2000/svg" viewBox="0 0 24 24" id="down">
        <path d="M18 10L12.7071 15.2929C12.3166 15.6834 11.6834 15.6834 11.2929 15.2929L6 10"
            stroke-width="2" stroke-linecap="round"></path>
    </symbol>
    <symbol fill="none" xmlns="http://www.w3.org/2000/svg" viewBox="0 0 24 24" id="left">
        <path
            d="M13.9998 6L8.70696 11.2929C8.31643 11.6834 8.31643 12.3166 8.70696 12.7071L13.9998 18"
            stroke-width="2" stroke-linecap="round"></path>
    </symbol>
    <symbol fill="none" xmlns="http://www.w3.org/2000/svg" viewBox="0 0 38 37" id="close">
        <path d="M14.666 22.358L23.1992 13.8249" stroke-width="2" stroke-linecap="round"
            stroke-linejoin="round"></path>
        <path d="M23.1992 22.358L14.666 13.8249" stroke-width="2" stroke-linecap="round"
            stroke-linejoin="round"></path>
    </symbol>
    <symbol fill="none" xmlns="http://www.w3.org/2000/svg" viewBox="0 0 45 45" id="done">
        <path d="M14.3281 22.1861L19.5603 27.4183L30.0432 16.9538" stroke-width="2"
            stroke-linecap="round" stroke-linejoin="round"></path>
    </symbol>
    <symbol fill="none" xmlns="http://www.w3.org/2000/svg" viewBox="0 0 24 24" id="security-user">
        <path
            d="M10.4901 2.23006L5.50015 4.10005C4.35015 4.53005 3.41016 5.89004 3.41016 7.12004V14.55C3.41016 15.73 4.19017 17.28 5.14017 17.99L9.44016 21.2001C10.8502 22.2601 13.1701 22.2601 14.5801 21.2001L18.8802 17.99C19.8302 17.28 20.6101 15.73 20.6101 14.55V7.12004C20.6101 5.89004 19.6701 4.53005 18.5201 4.10005L13.5302 2.23006C12.6802 1.92006 11.3201 1.92006 10.4901 2.23006Z"
            stroke-width="1.5" stroke-linecap="round" stroke-linejoin="round"></path>
        <path
            d="M11.9997 10.92C11.9597 10.92 11.9097 10.92 11.8697 10.92C10.9297 10.89 10.1797 10.11 10.1797 9.16003C10.1797 8.19003 10.9697 7.40002 11.9397 7.40002C12.9097 7.40002 13.6997 8.19003 13.6997 9.16003C13.6897 10.12 12.9397 10.89 11.9997 10.92Z"
            stroke-width="1.5" stroke-linecap="round" stroke-linejoin="round"></path>
        <path
            d="M10.0091 13.7201C9.04906 14.3601 9.04906 15.4101 10.0091 16.0501C11.0991 16.7801 12.8891 16.7801 13.9791 16.0501C14.9391 15.4101 14.9391 14.3601 13.9791 13.7201C12.8991 12.9901 11.1091 12.9901 10.0091 13.7201Z"
            stroke-width="1.5" stroke-linecap="round" stroke-linejoin="round"></path>
    </symbol>
    <symbol fill="none" xmlns="http://www.w3.org/2000/svg" viewBox="0 0 24 24" id="call">
        <path
            d="M21.97 18.33C21.97 18.69 21.89 19.06 21.72 19.42C21.55 19.78 21.33 20.12 21.04 20.44C20.55 20.98 20.01 21.37 19.4 21.62C18.8 21.87 18.15 22 17.45 22C16.43 22 15.34 21.76 14.19 21.27C13.04 20.78 11.89 20.12 10.75 19.29C9.6 18.45 8.51 17.52 7.47 16.49C6.44 15.45 5.51 14.36 4.68 13.22C3.86 12.08 3.2 10.94 2.72 9.81C2.24 8.67 2 7.58 2 6.54C2 5.86 2.12 5.21 2.36 4.61C2.6 4 2.98 3.44 3.51 2.94C4.15 2.31 4.85 2 5.59 2C5.87 2 6.15 2.06 6.4 2.18C6.66 2.3 6.89 2.48 7.07 2.74L9.39 6.01C9.57 6.26 9.7 6.49 9.79 6.71C9.88 6.92 9.93 7.13 9.93 7.32C9.93 7.56 9.86 7.8 9.72 8.03C9.59 8.26 9.4 8.5 9.16 8.74L8.4 9.53C8.29 9.64 8.24 9.77 8.24 9.93C8.24 10.01 8.25 10.08 8.27 10.16C8.3 10.24 8.33 10.3 8.35 10.36C8.53 10.69 8.84 11.12 9.28 11.64C9.73 12.16 10.21 12.69 10.73 13.22C11.27 13.75 11.79 14.24 12.32 14.69C12.84 15.13 13.27 15.43 13.61 15.61C13.66 15.63 13.72 15.66 13.79 15.69C13.87 15.72 13.95 15.73 14.04 15.73C14.21 15.73 14.34 15.67 14.45 15.56L15.21 14.81C15.46 14.56 15.7 14.37 15.93 14.25C16.16 14.11 16.39 14.04 16.64 14.04C16.83 14.04 17.03 14.08 17.25 14.17C17.47 14.26 17.7 14.39 17.95 14.56L21.26 16.91C21.52 17.09 21.7 17.3 21.81 17.55C21.91 17.8 21.97 18.05 21.97 18.33Z"
            stroke-width="1.5" stroke-miterlimit="10"></path>
    </symbol>
    <symbol fill="none" xmlns="http://www.w3.org/2000/svg" viewBox="0 0 24 24" id="person">
        <path
            d="M12.1605 10.87C12.0605 10.86 11.9405 10.86 11.8305 10.87C9.45055 10.79 7.56055 8.84 7.56055 6.44C7.56055 3.99 9.54055 2 12.0005 2C14.4505 2 16.4405 3.99 16.4405 6.44C16.4305 8.84 14.5405 10.79 12.1605 10.87Z"
            stroke-width="1.5" stroke-linecap="round" stroke-linejoin="round"></path>
        <path
            d="M7.1607 14.56C4.7407 16.18 4.7407 18.82 7.1607 20.43C9.9107 22.27 14.4207 22.27 17.1707 20.43C19.5907 18.81 19.5907 16.17 17.1707 14.56C14.4307 12.73 9.9207 12.73 7.1607 14.56Z"
            stroke-width="1.5" stroke-linecap="round" stroke-linejoin="round"></path>
    </symbol>
    <symbol fill="none" xmlns="http://www.w3.org/2000/svg" viewBox="0 0 24 24" id="email">
        <path
            d="M17 20.5H7C4 20.5 2 19 2 15.5V8.5C2 5 4 3.5 7 3.5H17C20 3.5 22 5 22 8.5V15.5C22 19 20 20.5 17 20.5Z"
            stroke-width="1.5" stroke-miterlimit="10" stroke-linecap="round"
            stroke-linejoin="round"></path>
        <path d="M17 9L13.87 11.5C12.84 12.32 11.15 12.32 10.12 11.5L7 9"
            stroke-width="1.5" stroke-miterlimit="10" stroke-linecap="round" stroke-linejoin="round"></path>
    </symbol>
    <symbol fill="none" xmlns="http://www.w3.org/2000/svg" viewBox="0 0 24 24" id="eye">
        <path
            d="M15.5799 11.9999C15.5799 13.9799 13.9799 15.5799 11.9999 15.5799C10.0199 15.5799 8.41992 13.9799 8.41992 11.9999C8.41992 10.0199 10.0199 8.41992 11.9999 8.41992C13.9799 8.41992 15.5799 10.0199 15.5799 11.9999Z"
            stroke-width="1.5" stroke-linecap="round" stroke-linejoin="round"></path>
        <path
            d="M11.9998 20.2702C15.5298 20.2702 18.8198 18.1902 21.1098 14.5902C22.0098 13.1802 22.0098 10.8102 21.1098 9.40021C18.8198 5.80021 15.5298 3.72021 11.9998 3.72021C8.46984 3.72021 5.17984 5.80021 2.88984 9.40021C1.98984 10.8102 1.98984 13.1802 2.88984 14.5902C5.17984 18.1902 8.46984 20.2702 11.9998 20.2702Z"
            stroke-width="1.5" stroke-linecap="round" stroke-linejoin="round"></path>
    </symbol>
    <symbol fill="none" xmlns="http://www.w3.org/2000/svg" viewBox="0 0 24 24" id="eye-slash">
        <path
            d="M14.5299 9.46992L9.46992 14.5299C8.81992 13.8799 8.41992 12.9899 8.41992 11.9999C8.41992 10.0199 10.0199 8.41992 11.9999 8.41992C12.9899 8.41992 13.8799 8.81992 14.5299 9.46992Z"
            stroke-width="1.5" stroke-linecap="round" stroke-linejoin="round"></path>
        <path
            d="M17.8198 5.76998C16.0698 4.44998 14.0698 3.72998 11.9998 3.72998C8.46984 3.72998 5.17984 5.80998 2.88984 9.40998C1.98984 10.82 1.98984 13.19 2.88984 14.6C3.67984 15.84 4.59984 16.91 5.59984 17.77"
            stroke-width="1.5" stroke-linecap="round" stroke-linejoin="round"></path>
        <path
            d="M8.41992 19.5302C9.55992 20.0102 10.7699 20.2702 11.9999 20.2702C15.5299 20.2702 18.8199 18.1902 21.1099 14.5902C22.0099 13.1802 22.0099 10.8102 21.1099 9.40018C20.7799 8.88018 20.4199 8.39018 20.0499 7.93018"
            stroke-width="1.5" stroke-linecap="round" stroke-linejoin="round"></path>
        <path d="M15.5104 12.7002C15.2504 14.1102 14.1004 15.2602 12.6904 15.5202"
            stroke-width="1.5" stroke-linecap="round" stroke-linejoin="round"></path>
        <path d="M9.47 14.5298L2 21.9998" stroke-width="1.5" stroke-linecap="round"
            stroke-linejoin="round"></path>
        <path d="M22.0003 2L14.5303 9.47" stroke-width="1.5" stroke-linecap="round"
            stroke-linejoin="round"></path>
    </symbol>
    <symbol fill="none" xmlns="http://www.w3.org/2000/svg" viewBox="0 0 24 24" id="home">
        <path
            d="M9.02 2.84016L3.63 7.04016C2.73 7.74016 2 9.23016 2 10.3602V17.7702C2 20.0902 3.89 21.9902 6.21 21.9902H17.79C20.11 21.9902 22 20.0902 22 17.7802V10.5002C22 9.29016 21.19 7.74016 20.2 7.05016L14.02 2.72016C12.62 1.74016 10.37 1.79016 9.02 2.84016Z"
            stroke-width="1.5" stroke-linecap="round" stroke-linejoin="round"></path>
        <path d="M12 17.9902V14.9902" stroke-width="1.5" stroke-linecap="round"
            stroke-linejoin="round"></path>
    </symbol>
    <symbol fill="none" xmlns="http://www.w3.org/2000/svg" viewBox="0 0 24 24" id="key">
        <path
            d="M19.7897 14.9298C17.7297 16.9798 14.7797 17.6098 12.1897 16.7998L7.47966 21.4998C7.13966 21.8498 6.46966 22.0598 5.98966 21.9898L3.80966 21.6898C3.08966 21.5898 2.41966 20.9098 2.30966 20.1898L2.00966 18.0098C1.93966 17.5298 2.16966 16.8598 2.49966 16.5198L7.19966 11.8198C6.39966 9.21982 7.01966 6.26982 9.07966 4.21982C12.0297 1.26982 16.8197 1.26982 19.7797 4.21982C22.7397 7.16982 22.7397 11.9798 19.7897 14.9298Z"
            stroke-width="1.5" stroke-miterlimit="10" stroke-linecap="round"
            stroke-linejoin="round"></path>
        <path d="M6.88965 17.4902L9.18965 19.7902" stroke-width="1.5"
            stroke-miterlimit="10" stroke-linecap="round" stroke-linejoin="round"></path>
        <path
            d="M14.5 11C15.3284 11 16 10.3284 16 9.5C16 8.67157 15.3284 8 14.5 8C13.6716 8 13 8.67157 13 9.5C13 10.3284 13.6716 11 14.5 11Z"
            stroke-width="1.5" stroke-linecap="round" stroke-linejoin="round"></path>
    </symbol>
    <symbol fill="none" xmlns="http://www.w3.org/2000/svg" viewBox="0 0 24 24" id="moon">
        <path
            d="M2.03009 12.42C2.39009 17.57 6.76009 21.76 11.9901 21.99C15.6801 22.15 18.9801 20.43 20.9601 17.72C21.7801 16.61 21.3401 15.87 19.9701 16.12C19.3001 16.24 18.6101 16.29 17.8901 16.26C13.0001 16.06 9.00009 11.97 8.98009 7.13996C8.97009 5.83996 9.24009 4.60996 9.73009 3.48996C10.2701 2.24996 9.62009 1.65996 8.37009 2.18996C4.41009 3.85996 1.70009 7.84996 2.03009 12.42Z"
            stroke-width="1.5" stroke-linecap="round" stroke-linejoin="round"></path>
    </symbol>
    <symbol fill="none" xmlns="http://www.w3.org/2000/svg" viewBox="0 0 24 24" id="notification">
        <path d="M12 6.44043V9.77043" stroke-width="1.5" stroke-miterlimit="10"
            stroke-linecap="round"></path>
        <path
            d="M12.0209 2C8.34087 2 5.36087 4.98 5.36087 8.66V10.76C5.36087 11.44 5.08087 12.46 4.73087 13.04L3.46087 15.16C2.68087 16.47 3.22087 17.93 4.66087 18.41C9.44087 20 14.6109 20 19.3909 18.41C20.7409 17.96 21.3209 16.38 20.5909 15.16L19.3209 13.04C18.9709 12.46 18.6909 11.43 18.6909 10.76V8.66C18.6809 5 15.6809 2 12.0209 2Z"
            stroke-width="1.5" stroke-miterlimit="10" stroke-linecap="round"></path>
        <path
            d="M15.3299 18.8203C15.3299 20.6503 13.8299 22.1503 11.9999 22.1503C11.0899 22.1503 10.2499 21.7703 9.64992 21.1703C9.04992 20.5703 8.66992 19.7303 8.66992 18.8203"
            stroke-width="1.5" stroke-miterlimit="10"></path>
    </symbol>
    <symbol fill="none" xmlns="http://www.w3.org/2000/svg" viewBox="0 0 24 24" id="pin">
        <path
            d="M11.9996 14.8799C11.0896 14.8799 10.3496 14.1399 10.3496 13.2299V10.7599C10.3496 9.84989 11.0896 9.10986 11.9996 9.10986C12.9096 9.10986 13.6496 9.84989 13.6496 10.7599V13.2299C13.6496 14.1399 12.9096 14.8799 11.9996 14.8799Z"
            stroke-width="1.5" stroke-linecap="round"></path>
        <path
            d="M16.98 13.4702C16.78 16.0502 14.62 18.0702 12 18.0702C9.24 18.0702 7 15.8302 7 13.0702V10.9302C7 8.17018 9.24 5.93018 12 5.93018C14.59 5.93018 16.72 7.90017 16.97 10.4202"
            stroke-width="1.5" stroke-linecap="round"></path>
        <path d="M15 2H17C20 2 22 4 22 7V9" stroke-width="1.5"
            stroke-miterlimit="10" stroke-linecap="round" stroke-linejoin="round"></path>
        <path d="M2 9V7C2 4 4 2 7 2H9" stroke-width="1.5" stroke-miterlimit="10"
            stroke-linecap="round" stroke-linejoin="round"></path>
        <path d="M15 22H17C20 22 22 20 22 17V15" stroke-width="1.5"
            stroke-miterlimit="10" stroke-linecap="round" stroke-linejoin="round"></path>
        <path d="M2 15V17C2 20 4 22 7 22H9" stroke-width="1.5"
            stroke-miterlimit="10" stroke-linecap="round" stroke-linejoin="round"></path>
    </symbol>
    <symbol fill="none" xmlns="http://www.w3.org/2000/svg" viewBox="0 0 24 24" id="profile">
        <path
            d="M12.1197 12.78C12.0497 12.77 11.9597 12.77 11.8797 12.78C10.1197 12.72 8.71973 11.28 8.71973 9.50998C8.71973 7.69998 10.1797 6.22998 11.9997 6.22998C13.8097 6.22998 15.2797 7.69998 15.2797 9.50998C15.2697 11.28 13.8797 12.72 12.1197 12.78Z"
            stroke-width="1.5" stroke-linecap="round" stroke-linejoin="round"></path>
        <path
            d="M18.7398 19.3801C16.9598 21.0101 14.5998 22.0001 11.9998 22.0001C9.39977 22.0001 7.03977 21.0101 5.25977 19.3801C5.35977 18.4401 5.95977 17.5201 7.02977 16.8001C9.76977 14.9801 14.2498 14.9801 16.9698 16.8001C18.0398 17.5201 18.6398 18.4401 18.7398 19.3801Z"
            stroke-width="1.5" stroke-linecap="round" stroke-linejoin="round"></path>
        <path
            d="M12 22C17.5228 22 22 17.5228 22 12C22 6.47715 17.5228 2 12 2C6.47715 2 2 6.47715 2 12C2 17.5228 6.47715 22 12 22Z"
            stroke-width="1.5" stroke-linecap="round" stroke-linejoin="round"></path>
        <symbol xmlns="http://www.w3.org/2000/svg" viewBox="0 0 24 24" id="send">
            <path
                d="M9.51026 4.23013L18.0703 8.51013C21.9103 10.4301 21.9103 13.5701 18.0703 15.4901L9.51026 19.7701C3.75026 22.6501 1.40026 20.2901 4.28026 14.5401L5.15026 12.8101C5.37026 12.3701 5.37026 11.6401 5.15026 11.2001L4.28026 9.46013C1.40026 3.71013 3.76026 1.35013 9.51026 4.23013Z"
                stroke-width="1.5" stroke-linecap="round" stroke-linejoin="round"></path>
            <path d="M5.44043 12H10.8404" stroke-width="1.5" stroke-linecap="round"
                stroke-linejoin="round"></path>
        </symbol>
        <symbol fill="none" xmlns="http://www.w3.org/2000/svg" viewBox="0 0 24 24" id="search">
            <path
                d="M11.5 21C16.7467 21 21 16.7467 21 11.5C21 6.25329 16.7467 2 11.5 2C6.25329 2 2 6.25329 2 11.5C2 16.7467 6.25329 21 11.5 21Z"
                stroke-width="1.5" stroke-linecap="round" stroke-linejoin="round"></path>
            <path d="M22 22L20 20" stroke-width="1.5" stroke-linecap="round" stroke-linejoin="round"></path>
        </symbol>

        <symbol fill="none" xmlns="http://www.w3.org/2000/svg" viewBox="0 0 24 24" id="arrow-down">
            <path
                d="M19.9201 8.9502L13.4001 15.4702C12.6301 16.2402 11.3701 16.2402 10.6001 15.4702L4.08008 8.9502"
                stroke-width="1.5" stroke-miterlimit="10" stroke-linecap="round"
                stroke-linejoin="round"></path>
        </symbol>
        <symbol fill="none" xmlns="http://www.w3.org/2000/svg" viewBox="0 0 24 24" id="folder">
            <path
                d="M22 11V17C22 21 21 22 17 22H7C3 22 2 21 2 17V7C2 3 3 2 7 2H8.5C10 2 10.33 2.44 10.9 3.2L12.4 5.2C12.78 5.7 13 6 14 6H17C21 6 22 7 22 11Z"
                stroke-width="1.5" stroke-miterlimit="10"></path>
        </symbol>

        <symbol fill="none" xmlns="http://www.w3.org/2000/svg" viewBox="0 0 24 24" id="calendar">
            <path d="M8 2V5" stroke-width="1.5" stroke-miterlimit="10"
                stroke-linecap="round" stroke-linejoin="round"></path>
            <path d="M16 2V5" stroke-width="1.5" stroke-miterlimit="10"
                stroke-linecap="round" stroke-linejoin="round"></path>
            <path
                d="M16 3.5C19.33 3.68 21 4.95 21 9.65V15.83C21 19.95 20 22.01 15 22.01H9C4 22.01 3 19.95 3 15.83V9.65C3 4.95 4.67 3.69 8 3.5H16Z"
                stroke-width="1.5" stroke-miterlimit="10" stroke-linecap="round"
                stroke-linejoin="round"></path>
            <path d="M20.75 17.6H3.25" stroke-width="1.5" stroke-miterlimit="10"
                stroke-linecap="round" stroke-linejoin="round"></path>
            <path
                d="M12 8.25C10.77 8.25 9.73 8.92 9.73 10.22C9.73 10.84 10.02 11.31 10.46 11.61C9.85 11.97 9.5 12.55 9.5 13.23C9.5 14.47 10.45 15.24 12 15.24C13.54 15.24 14.5 14.47 14.5 13.23C14.5 12.55 14.15 11.96 13.53 11.61C13.98 11.3 14.26 10.84 14.26 10.22C14.26 8.92 13.23 8.25 12 8.25ZM12 11.09C11.48 11.09 11.1 10.78 11.1 10.29C11.1 9.79 11.48 9.5 12 9.5C12.52 9.5 12.9 9.79 12.9 10.29C12.9 10.78 12.52 11.09 12 11.09ZM12 14C11.34 14 10.86 13.67 10.86 13.07C10.86 12.47 11.34 12.15 12 12.15C12.66 12.15 13.14 12.48 13.14 13.07C13.14 13.67 12.66 14 12 14Z"
            ></path>
        </symbol>

        <symbol fill="none" xmlns="http://www.w3.org/2000/svg" viewBox="0 0 24 24" id="tag-user">
            <path
                d="M18 18.86H17.24C16.44 18.86 15.68 19.17 15.12 19.73L13.41 21.42C12.63 22.19 11.36 22.19 10.58 21.42L8.87 19.73C8.31 19.17 7.54 18.86 6.75 18.86H6C4.34 18.86 3 17.53 3 15.89V4.97C3 3.33 4.34 2 6 2H18C19.66 2 21 3.33 21 4.97V15.88C21 17.52 19.66 18.86 18 18.86Z"
                stroke-width="1.5" stroke-miterlimit="10" stroke-linecap="round"
                stroke-linejoin="round"></path>
            <path
                d="M12.0691 8.95005C12.0291 8.95005 11.9691 8.95005 11.9191 8.95005C10.8691 8.91005 10.0391 8.06005 10.0391 7.00005C10.0391 5.92005 10.9091 5.05005 11.9891 5.05005C13.0691 5.05005 13.9391 5.93005 13.9391 7.00005C13.9491 8.06005 13.1191 8.92005 12.0691 8.95005Z"
                stroke-width="1.5" stroke-linecap="round" stroke-linejoin="round"></path>
            <path
                d="M9.24945 11.9601C7.91945 12.8501 7.91945 14.3001 9.24945 15.1901C10.7595 16.2001 13.2395 16.2001 14.7495 15.1901C16.0795 14.3001 16.0795 12.8501 14.7495 11.9601C13.2395 10.9601 10.7695 10.9601 9.24945 11.9601Z"
                stroke-width="1.5" stroke-linecap="round" stroke-linejoin="round"></path>
        </symbol>

        <symbol fill="none" xmlns="http://www.w3.org/2000/svg" viewBox="0 0 24 24" id="shield">
            <path
                d="M10.4902 2.23006L5.50016 4.11006C4.35016 4.54006 3.41016 5.90006 3.41016 7.12006V14.5501C3.41016 15.7301 4.19016 17.2801 5.14016 17.9901L9.44016 21.2001C10.8502 22.2601 13.1702 22.2601 14.5802 21.2001L18.8802 17.9901C19.8302 17.2801 20.6102 15.7301 20.6102 14.5501V7.12006C20.6102 5.89006 19.6702 4.53006 18.5202 4.10006L13.5302 2.23006C12.6802 1.92006 11.3202 1.92006 10.4902 2.23006Z"
                stroke-width="1.5" stroke-linecap="round" stroke-linejoin="round"></path>
            <path d="M9.0498 11.8702L10.6598 13.4802L14.9598 9.18018" stroke-width="1.5"
                stroke-linecap="round" stroke-linejoin="round"></path>
        </symbol>
        <symbol fill="none" xmlns="http://www.w3.org/2000/svg" viewBox="0 0 20 20" id="logout">
            <path
                d="M7.41663 6.30019C7.67496 3.3002 9.21663 2.0752 12.5916 2.0752H12.7C16.425 2.0752 17.9166 3.56686 17.9166 7.29186V12.7252C17.9166 16.4502 16.425 17.9419 12.7 17.9419H12.5916C9.24163 17.9419 7.69996 16.7335 7.42496 13.7835"
                stroke-width="1.5" stroke-linecap="round" stroke-linejoin="round"></path>
            <path d="M12.5001 10H3.01672" stroke-width="1.5" stroke-linecap="round"
                stroke-linejoin="round"></path>
            <path d="M4.87504 7.2085L2.08337 10.0002L4.87504 12.7918" stroke-width="1.5"
                stroke-linecap="round" stroke-linejoin="round"></path>
        </symbol>
        <symbol fill="none" xmlns="http://www.w3.org/2000/svg" viewBox="0 0 24 24" id="settings">
            <path d="M22 6.5H16" stroke-width="1.5" stroke-miterlimit="10" stroke-linecap="round"
                stroke-linejoin="round"></path>
            <path d="M6 6.5H2" stroke-width="1.5" stroke-miterlimit="10" stroke-linecap="round"
                stroke-linejoin="round"></path>
            <path
                d="M10 10C11.933 10 13.5 8.433 13.5 6.5C13.5 4.567 11.933 3 10 3C8.067 3 6.5 4.567 6.5 6.5C6.5 8.433 8.067 10 10 10Z"
                stroke-width="1.5" stroke-miterlimit="10" stroke-linecap="round"
                stroke-linejoin="round"></path>
            <path d="M22 17.5H18" stroke-width="1.5" stroke-miterlimit="10" stroke-linecap="round"
                stroke-linejoin="round"></path>
            <path d="M8 17.5H2" stroke-width="1.5" stroke-miterlimit="10" stroke-linecap="round"
                stroke-linejoin="round"></path>
            <path
                d="M14 21C15.933 21 17.5 19.433 17.5 17.5C17.5 15.567 15.933 14 14 14C12.067 14 10.5 15.567 10.5 17.5C10.5 19.433 12.067 21 14 21Z"
                stroke-width="1.5" stroke-miterlimit="10" stroke-linecap="round"
                stroke-linejoin="round"></path>
        </symbol>
        <symbol width="24" height="24" viewBox="0 0 24 24" fill="none"
            xmlns="http://www.w3.org/2000/svg" id="shield-key">

            <path
                d="M20.9099 11.12C20.9099 16.01 17.3599 20.59 12.5099 21.93C12.1799 22.02 11.8198 22.02 11.4898 21.93C6.63984 20.59 3.08984 16.01 3.08984 11.12V6.73003C3.08984 5.91003 3.70986 4.98004 4.47986 4.67004L10.0498 2.39007C11.2998 1.88007 12.7098 1.88007 13.9598 2.39007L19.5298 4.67004C20.2898 4.98004 20.9199 5.91003 20.9199 6.73003L20.9099 11.12Z"
                stroke-width="1.5" stroke-linecap="round" stroke-linejoin="round" />
            <path
                d="M12 12.5C13.1046 12.5 14 11.6046 14 10.5C14 9.39543 13.1046 8.5 12 8.5C10.8954 8.5 10 9.39543 10 10.5C10 11.6046 10.8954 12.5 12 12.5Z"
                stroke-width="1.5" stroke-miterlimit="10" stroke-linecap="round"
                stroke-linejoin="round" />
            <path d="M12 12.5V15.5" stroke-width="1.5" stroke-miterlimit="10" stroke-linecap="round"
                stroke-linejoin="round" />
        </symbol>
    </symbol>
    <symbol fill="none" xmlns="http://www.w3.org/2000/svg" viewBox="0 0 11 11" id="edit-2">
        <path
            d="M6.0777 1.65006L2.31478 5.63298C2.1727 5.78423 2.0352 6.08214 2.0077 6.28839L1.83811 7.77339C1.77853 8.30964 2.16353 8.67631 2.6952 8.58464L4.17103 8.33256C4.37728 8.29589 4.66603 8.14464 4.80811 7.98881L8.57103 4.00589C9.22186 3.31839 9.5152 2.53464 8.50228 1.57673C7.49395 0.627975 6.72853 0.962559 6.0777 1.65006Z"
            stroke="white" stroke-width="1.5" stroke-miterlimit="10" stroke-linecap="round"
            stroke-linejoin="round"></path>
        <path d="M5.44922 2.3147C5.6463 3.5797 6.67297 4.54678 7.94714 4.67511" stroke-width="1.5"
            stroke-miterlimit="10" stroke-linecap="round" stroke-linejoin="round"></path>
        <path d="M1.375 10.0833H9.625" stroke="white" stroke-width="1.5" stroke-miterlimit="10"
            stroke-linecap="round" stroke-linejoin="round"></path>
    </symbol>
    <symbol fill="none" xmlns="http://www.w3.org/2000/svg" viewBox="0 0 24 24" id="tag-user">
        <path
            d="M18 18.86H17.24C16.44 18.86 15.68 19.17 15.12 19.73L13.41 21.42C12.63 22.19 11.36 22.19 10.58 21.42L8.87 19.73C8.31 19.17 7.54 18.86 6.75 18.86H6C4.34 18.86 3 17.53 3 15.89V4.97C3 3.33 4.34 2 6 2H18C19.66 2 21 3.33 21 4.97V15.88C21 17.52 19.66 18.86 18 18.86Z"
            stroke-width="1.5" stroke-miterlimit="10" stroke-linecap="round" stroke-linejoin="round"></path>
        <path
            d="M12.0701 8.9498C12.0301 8.9498 11.97 8.9498 11.92 8.9498C10.87 8.9098 10.04 8.0598 10.04 6.9998C10.04 5.9198 10.9101 5.0498 11.9901 5.0498C13.0701 5.0498 13.9401 5.9298 13.9401 6.9998C13.9501 8.0598 13.1201 8.9198 12.0701 8.9498Z"
            stroke-width="1.5" stroke-linecap="round" stroke-linejoin="round"></path>
        <path
            d="M9.25043 11.96C7.92043 12.85 7.92043 14.3 9.25043 15.19C10.7604 16.2 13.2404 16.2 14.7504 15.19C16.0804 14.3 16.0804 12.85 14.7504 11.96C13.2404 10.96 10.7704 10.96 9.25043 11.96Z"
            stroke-width="1.5" stroke-linecap="round" stroke-linejoin="round"></path>
    </symbol>
    <symbol fill="none" xmlns="http://www.w3.org/2000/svg" viewBox="0 0 24 24" id="key-square">
        <path d="M9 22H15C20 22 22 20 22 15V9C22 4 20 2 15 2H9C4 2 2 4 2 9V15C2 20 4 22 9 22Z"
            stroke-width="1.5" stroke-linecap="round" stroke-linejoin="round"></path>
        <path
            d="M16.2802 13.6099C15.1502 14.7399 13.5302 15.0899 12.1002 14.6399L9.5102 17.2199C9.3302 17.4099 8.9602 17.5299 8.6902 17.4899L7.4902 17.3299C7.0902 17.2799 6.7302 16.8999 6.6702 16.5099L6.5102 15.3099C6.4702 15.0499 6.6002 14.6799 6.7802 14.4899L9.3602 11.9099C8.9202 10.4799 9.2602 8.85989 10.3902 7.72989C12.0102 6.10989 14.6502 6.10989 16.2802 7.72989C17.9002 9.33989 17.9002 11.9799 16.2802 13.6099Z"
            stroke-width="1.5" stroke-miterlimit="10" stroke-linecap="round" stroke-linejoin="round"></path>
        <path d="M10.4496 16.2799L9.59961 15.4199" stroke-width="1.5" stroke-miterlimit="10"
            stroke-linecap="round" stroke-linejoin="round"></path>
        <path d="M13.3949 10.7H13.4039" stroke-width="2" stroke-linecap="round"
            stroke-linejoin="round"></path>
    </symbol>
    <symbol fill="none" xmlns="http://www.w3.org/2000/svg" viewBox="0 0 24 24" id="profile-1">
        <path
            d="M12.1596 10.87C12.0596 10.86 11.9396 10.86 11.8296 10.87C9.44957 10.79 7.55957 8.84 7.55957 6.44C7.55957 3.99 9.53957 2 11.9996 2C14.4496 2 16.4396 3.99 16.4396 6.44C16.4296 8.84 14.5396 10.79 12.1596 10.87Z"
            stroke-width="1.5" stroke-linecap="round" stroke-linejoin="round"></path>
        <path
            d="M7.15973 14.56C4.73973 16.18 4.73973 18.82 7.15973 20.43C9.90973 22.27 14.4197 22.27 17.1697 20.43C19.5897 18.81 19.5897 16.17 17.1697 14.56C14.4297 12.73 9.91973 12.73 7.15973 14.56Z"
            stroke-width="1.5" stroke-linecap="round" stroke-linejoin="round"></path>
    </symbol>
    <symbol fill="none" xmlns="http://www.w3.org/2000/svg" viewBox="0 0 24 24" id="arrow-left">
        <path d="M9.57 5.93005L3.5 12.0001L9.57 18.0701" stroke-width="1.5" stroke-miterlimit="10"
            stroke-linecap="round" stroke-linejoin="round"></path>
        <path d="M20.4999 12H3.66992" stroke-width="1.5" stroke-miterlimit="10"
            stroke-linecap="round" stroke-linejoin="round"></path>
    </symbol>
    <symbol fill="none" xmlns="http://www.w3.org/2000/svg" viewBox="0 0 24 24" id="arrow-up">
        <path
            d="M19.9201 15.0501L13.4001 8.53014C12.6301 7.76014 11.3701 7.76014 10.6001 8.53014L4.08008 15.0501"
            stroke-width="1.5" stroke-miterlimit="10" stroke-linecap="round" stroke-linejoin="round"></path>
    </symbol>
    <symbol fill="none" xmlns="http://www.w3.org/2000/svg" viewBox="0 0 24 24" id="grade">
        <path
            d="M4.25977 11.02V15.99C4.25977 17.81 4.25977 17.81 5.97977 18.97L10.7098 21.7C11.4198 22.11 12.5798 22.11 13.2898 21.7L18.0198 18.97C19.7398 17.81 19.7398 17.81 19.7398 15.99V11.02C19.7398 9.2 19.7398 9.2 18.0198 8.04L13.2898 5.31C12.5798 4.9 11.4198 4.9 10.7098 5.31L5.97977 8.04C4.25977 9.2 4.25977 9.2 4.25977 11.02Z"
            stroke-width="1.5" stroke-linecap="round" stroke-linejoin="round"></path>
        <path d="M17.5 7.63V5C17.5 3 16.5 2 14.5 2H9.5C7.5 2 6.5 3 6.5 5V7.56"
            stroke-width="1.5" stroke-linecap="round" stroke-linejoin="round"></path>
        <path
            d="M12.6298 10.99L13.1998 11.88C13.2898 12.02 13.4898 12.16 13.6398 12.2L14.6598 12.46C15.2898 12.62 15.4598 13.16 15.0498 13.66L14.3798 14.47C14.2798 14.6 14.1998 14.83 14.2098 14.99L14.2698 16.04C14.3098 16.69 13.8498 17.02 13.2498 16.78L12.2698 16.39C12.1198 16.33 11.8698 16.33 11.7198 16.39L10.7398 16.78C10.1398 17.02 9.67978 16.68 9.71978 16.04L9.77978 14.99C9.78978 14.83 9.70978 14.59 9.60978 14.47L8.93978 13.66C8.52978 13.16 8.69978 12.62 9.32978 12.46L10.3498 12.2C10.5098 12.16 10.7098 12.01 10.7898 11.88L11.3598 10.99C11.7198 10.45 12.2798 10.45 12.6298 10.99Z"
            stroke-width="1.5" stroke-linecap="round" stroke-linejoin="round"></path>
    </symbol>
    <symbol fill="none" xmlns="http://www.w3.org/2000/svg" viewBox="0 0 24 24" id="book-square">
        <path d="M9 22H15C20 22 22 20 22 15V9C22 4 20 2 15 2H9C4 2 2 4 2 9V15C2 20 4 22 9 22Z"
            stroke="#B6B6B6" stroke-width="1.5" stroke-linecap="round" stroke-linejoin="round"></path>
        <path
            d="M18.3801 15.27V7.57999C18.3801 6.80999 17.7601 6.25 17.0001 6.31H16.9601C15.6201 6.42 13.5901 7.11001 12.4501 7.82001L12.3401 7.89002C12.1601 8.00002 11.8501 8.00002 11.6601 7.89002L11.5001 7.79001C10.3701 7.08001 8.34012 6.40999 7.00012 6.29999C6.24012 6.23999 5.62012 6.81001 5.62012 7.57001V15.27C5.62012 15.88 6.1201 16.46 6.7301 16.53L6.9101 16.56C8.2901 16.74 10.4301 17.45 11.6501 18.12L11.6801 18.13C11.8501 18.23 12.1301 18.23 12.2901 18.13C13.5101 17.45 15.6601 16.75 17.0501 16.56L17.2601 16.53C17.8801 16.46 18.3801 15.89 18.3801 15.27Z"
            stroke="#B6B6B6" stroke-width="1.5" stroke-linecap="round" stroke-linejoin="round"></path>
        <path d="M12 8.09998V17.66" stroke="#B6B6B6" stroke-width="1.5" stroke-linecap="round"
            stroke-linejoin="round"></path>
    </symbol>
    <symbol fill="none" xmlns="http://www.w3.org/2000/svg" viewBox="0 0 24 24" id="book-saved">
        <path
            d="M22 4.67001V16.74C22 17.7 21.22 18.6 20.26 18.72L19.93 18.76C17.75 19.05 14.39 20.16 12.47 21.22C12.21 21.37 11.78 21.37 11.51 21.22L11.47 21.2C9.54997 20.15 6.20003 19.05 4.03003 18.76L3.73999 18.72C2.77999 18.6 2 17.7 2 16.74V4.66C2 3.47 2.96997 2.57001 4.15997 2.67001C6.25997 2.84001 9.43997 3.90003 11.22 5.01003L11.47 5.16C11.76 5.34 12.24 5.34 12.53 5.16L12.7 5.05001C13.33 4.66001 14.13 4.27001 15 3.92001V8.00002L17 6.67001L19 8.00002V2.78005C19.27 2.73005 19.53 2.70002 19.77 2.68002H19.83C21.02 2.58002 22 3.47001 22 4.67001Z"
            stroke="#B6B6B6" stroke-width="1.5" stroke-linecap="round" stroke-linejoin="round"></path>
        <path d="M12 5.48999V20.49" stroke="#B6B6B6" stroke-width="1.5" stroke-linecap="round"
            stroke-linejoin="round"></path>
        <path d="M19 2.78003V8L17 6.66998L15 8V3.91998C16.31 3.39998 17.77 2.98003 19 2.78003Z"
            stroke="#B6B6B6" stroke-width="1.5" stroke-linecap="round" stroke-linejoin="round"></path>
    </symbol>
    <symbol fill="none" xmlns="http://www.w3.org/2000/svg" viewBox="0 0 24 24" id="house">
        <path d="M2 22H22" stroke="#B6B6B6" stroke-width="1.5" stroke-miterlimit="10"
            stroke-linecap="round" stroke-linejoin="round"></path>
        <path
            d="M2.9502 22L3.00019 9.96999C3.00019 9.35999 3.2902 8.78004 3.7702 8.40004L10.7702 2.95003C11.4902 2.39003 12.5002 2.39003 13.2302 2.95003L20.2302 8.39003C20.7202 8.77003 21.0002 9.34999 21.0002 9.96999V22"
            stroke="#B6B6B6" stroke-width="1.5" stroke-miterlimit="10" stroke-linejoin="round"></path>
        <path d="M13 17H11C10.17 17 9.5 17.67 9.5 18.5V22H14.5V18.5C14.5 17.67 13.83 17 13 17Z"
            stroke="#B6B6B6" stroke-width="1.5" stroke-miterlimit="10" stroke-linejoin="round"></path>
        <path
            d="M9.5 13.75H7.5C6.95 13.75 6.5 13.3 6.5 12.75V11.25C6.5 10.7 6.95 10.25 7.5 10.25H9.5C10.05 10.25 10.5 10.7 10.5 11.25V12.75C10.5 13.3 10.05 13.75 9.5 13.75Z"
            stroke="#B6B6B6" stroke-width="1.5" stroke-miterlimit="10" stroke-linejoin="round"></path>
        <path
            d="M16.5 13.75H14.5C13.95 13.75 13.5 13.3 13.5 12.75V11.25C13.5 10.7 13.95 10.25 14.5 10.25H16.5C17.05 10.25 17.5 10.7 17.5 11.25V12.75C17.5 13.3 17.05 13.75 16.5 13.75Z"
            stroke="#B6B6B6" stroke-width="1.5" stroke-miterlimit="10" stroke-linejoin="round"></path>
        <path d="M19.0003 7L18.9703 4H14.5703" stroke="#B6B6B6" stroke-width="1.5"
            stroke-miterlimit="10" stroke-linecap="round" stroke-linejoin="round"></path>
    </symbol>
    <symbol fill="none" xmlns="http://www.w3.org/2000/svg" viewBox="0 0 24 24" id="id">
        <path
            d="M10.4902 2.23L5.50016 4.11C4.35016 4.54 3.41016 5.9 3.41016 7.12V14.55C3.41016 15.73 4.19016 17.28 5.14016 17.99L9.44016 21.2C10.8502 22.26 13.1702 22.26 14.5802 21.2L18.8802 17.99C19.8302 17.28 20.6102 15.73 20.6102 14.55V7.12C20.6102 5.89 19.6702 4.53 18.5202 4.1L13.5302 2.23C12.6802 1.92 11.3202 1.92 10.4902 2.23Z"
            stroke-width="1.5" stroke-linecap="round" stroke-linejoin="round"></path>
        <path
            d="M12 12.5C13.1046 12.5 14 11.6046 14 10.5C14 9.39543 13.1046 8.5 12 8.5C10.8954 8.5 10 9.39543 10 10.5C10 11.6046 10.8954 12.5 12 12.5Z"
            stroke-width="1.5" stroke-miterlimit="10" stroke-linecap="round"
            stroke-linejoin="round"></path>
        <path d="M12 12.5V15.5" stroke-width="1.5" stroke-miterlimit="10"
            stroke-linecap="round" stroke-linejoin="round"></path>
    </symbol>
    <symbol fill="none" xmlns="http://www.w3.org/2000/svg" viewBox="0 0 24 24" id="setting-2">
    <path d="M12 15C13.6569 15 15 13.6569 15 12C15 10.3431 13.6569 9 12 9C10.3431 9 9 10.3431 9 12C9 13.6569 10.3431 15 12 15Z" stroke-width="1.5" stroke-miterlimit="10" stroke-linecap="round" stroke-linejoin="round"></path>
    <path d="M2 12.8801V11.1201C2 10.0801 2.85 9.22006 3.9 9.22006C5.71 9.22006 6.45 7.94006 5.54 6.37006C5.02 5.47006 5.33 4.30006 6.24 3.78006L7.97 2.79006C8.76 2.32006 9.78 2.60006 10.25 3.39006L10.36 3.58006C11.26 5.15006 12.74 5.15006 13.65 3.58006L13.76 3.39006C14.23 2.60006 15.25 2.32006 16.04 2.79006L17.77 3.78006C18.68 4.30006 18.99 5.47006 18.47 6.37006C17.56 7.94006 18.3 9.22006 20.11 9.22006C21.15 9.22006 22.01 10.0701 22.01 11.1201V12.8801C22.01 13.9201 21.16 14.7801 20.11 14.7801C18.3 14.7801 17.56 16.0601 18.47 17.6301C18.99 18.5401 18.68 19.7001 17.77 20.2201L16.04 21.2101C15.25 21.6801 14.23 21.4001 13.76 20.6101L13.65 20.4201C12.75 18.8501 11.27 18.8501 10.36 20.4201L10.25 20.6101C9.78 21.4001 8.76 21.6801 7.97 21.2101L6.24 20.2201C5.33 19.7001 5.02 18.5301 5.54 17.6301C6.45 16.0601 5.71 14.7801 3.9 14.7801C2.85 14.7801 2 13.9201 2 12.8801Z" stroke-width="1.5" stroke-miterlimit="10" stroke-linecap="round" stroke-linejoin="round"></path>
  </symbol>
  <symbol fill="none" xmlns="http://www.w3.org/2000/svg" viewBox="0 0 24 24" id="location">
    <path d="M11.9989 13.4299C13.722 13.4299 15.1189 12.0331 15.1189 10.3099C15.1189 8.58681 13.722 7.18994 11.9989 7.18994C10.2758 7.18994 8.87891 8.58681 8.87891 10.3099C8.87891 12.0331 10.2758 13.4299 11.9989 13.4299Z" stroke-width="1.5"></path>
    <path d="M3.62166 8.49C5.59166 -0.169998 18.4217 -0.159997 20.3817 8.5C21.5317 13.58 18.3717 17.88 15.6017 20.54C13.5917 22.48 10.4117 22.48 8.39166 20.54C5.63166 17.88 2.47166 13.57 3.62166 8.49Z" stroke-width="1.5"></path>
  </symbol>
  <symbol fill="none" xmlns="http://www.w3.org/2000/svg" viewBox="0 0 24 24" id="note-2">
    <path d="M8 2V5" stroke-width="1.5" stroke-miterlimit="10" stroke-linecap="round" stroke-linejoin="round"></path>
    <path d="M16 2V5" stroke-width="1.5" stroke-miterlimit="10" stroke-linecap="round" stroke-linejoin="round"></path>
    <path d="M7 13H15" stroke-width="1.5" stroke-miterlimit="10" stroke-linecap="round" stroke-linejoin="round"></path>
    <path d="M7 17H12" stroke-width="1.5" stroke-miterlimit="10" stroke-linecap="round" stroke-linejoin="round"></path>
    <path d="M16 3.5C19.33 3.68 21 4.95 21 9.65V15.83C21 19.95 20 22.01 15 22.01H9C4 22.01 3 19.95 3 15.83V9.65C3 4.95 4.67 3.69 8 3.5H16Z" stroke-width="1.5" stroke-miterlimit="10" stroke-linecap="round" stroke-linejoin="round"></path>
  </symbol>
  <symbol fill="none" xmlns="http://www.w3.org/2000/svg" viewBox="0 0 24 24" id="more">
    <path d="M5 10C3.9 10 3 10.9 3 12C3 13.1 3.9 14 5 14C6.1 14 7 13.1 7 12C7 10.9 6.1 10 5 10Z" stroke-width="1.5"></path>
    <path d="M19 10C17.9 10 17 10.9 17 12C17 13.1 17.9 14 19 14C20.1 14 21 13.1 21 12C21 10.9 20.1 10 19 10Z" stroke-width="1.5"></path>
    <path d="M12 10C10.9 10 10 10.9 10 12C10 13.1 10.9 14 12 14C13.1 14 14 13.1 14 12C14 10.9 13.1 10 12 10Z" stroke-width="1.5"></path>
  </symbol>
  <symbol fill="none" xmlns="http://www.w3.org/2000/svg" viewBox="0 0 24 24" id="task-square">
    <path d="M12.3711 8.87988H17.6211" stroke-width="1.5" stroke-linecap="round" stroke-linejoin="round"></path>
    <path d="M6.37891 8.87988L7.12891 9.62988L9.37891 7.37988" stroke-width="1.5" stroke-linecap="round" stroke-linejoin="round"></path>
    <path d="M12.3711 15.8799H17.6211" stroke-width="1.5" stroke-linecap="round" stroke-linejoin="round"></path>
    <path d="M6.37891 15.8799L7.12891 16.6299L9.37891 14.3799" stroke-width="1.5" stroke-linecap="round" stroke-linejoin="round"></path>
    <path d="M9 22H15C20 22 22 20 22 15V9C22 4 20 2 15 2H9C4 2 2 4 2 9V15C2 20 4 22 9 22Z" stroke-width="1.5" stroke-linecap="round" stroke-linejoin="round"></path>
  </symbol>
  <symbol fill="none" xmlns="http://www.w3.org/2000/svg" viewBox="0 0 24 24" id="document-text">
    <path d="M21 7V17C21 20 19.5 22 16 22H8C4.5 22 3 20 3 17V7C3 4 4.5 2 8 2H16C19.5 2 21 4 21 7Z" stroke-width="1.5" stroke-miterlimit="10" stroke-linecap="round" stroke-linejoin="round"></path>
    <path d="M14.5 4.5V6.5C14.5 7.6 15.4 8.5 16.5 8.5H18.5" stroke-width="1.5" stroke-miterlimit="10" stroke-linecap="round" stroke-linejoin="round"></path>
    <path d="M8 13H12" stroke-width="1.5" stroke-miterlimit="10" stroke-linecap="round" stroke-linejoin="round"></path>
    <path d="M8 17H16" stroke-width="1.5" stroke-miterlimit="10" stroke-linecap="round" stroke-linejoin="round"></path>
  </symbol>
</svg>