<svg width="110" height="22" viewBox="0 0 110 22" fill="none" xmlns="http://www.w3.org/2000/svg">
<ellipse cx="11.5" cy="11" rx="11.5" ry="11" fill="white"/>
<path d="M13.9366 8.62499H12.3346V7.37499C12.3346 6.72999 12.3906 6.32374 13.3766 6.32374H13.9553C14.3233 6.32374 14.622 6.04374 14.622 5.69874V4.91499C14.622 4.58812 14.3546 4.30874 14.0066 4.28687C13.604 4.26124 13.2006 4.24937 12.7966 4.24999C10.988 4.24999 9.66797 5.28562 9.66797 7.18687V8.62499H8.33464C7.96664 8.62499 7.66797 8.90499 7.66797 9.24999V10.5C7.66797 10.845 7.96664 11.125 8.33464 11.125L9.66797 11.1244V16.125C9.66797 16.47 9.96664 16.75 10.3346 16.75H11.668C12.036 16.75 12.3346 16.47 12.3346 16.125V11.1231L13.784 11.1225C14.1226 11.1225 14.4073 10.8844 14.446 10.5687L14.5986 9.32124C14.6446 8.95062 14.3353 8.62499 13.9366 8.62499Z" fill="#504BDD"/>
<ellipse cx="40.5" cy="11" rx="11.5" ry="11" fill="white"/>
<path d="M42.9366 8.62499H41.3346V7.37499C41.3346 6.72999 41.3906 6.32374 42.3766 6.32374H42.9553C43.3233 6.32374 43.622 6.04374 43.622 5.69874V4.91499C43.622 4.58812 43.3546 4.30874 43.0066 4.28687C42.604 4.26124 42.2006 4.24937 41.7966 4.24999C39.988 4.24999 38.668 5.28562 38.668 7.18687V8.62499H37.3346C36.9666 8.62499 36.668 8.90499 36.668 9.24999V10.5C36.668 10.845 36.9666 11.125 37.3346 11.125L38.668 11.1244V16.125C38.668 16.47 38.9666 16.75 39.3346 16.75H40.668C41.036 16.75 41.3346 16.47 41.3346 16.125V11.1231L42.784 11.1225C43.1226 11.1225 43.4073 10.8844 43.446 10.5687L43.5986 9.32124C43.6446 8.95062 43.3353 8.62499 42.9366 8.62499Z" fill="#504BDD"/>
<ellipse cx="69.5" cy="11" rx="11.5" ry="11" fill="white"/>
<path d="M71.9366 8.62499H70.3346V7.37499C70.3346 6.72999 70.3906 6.32374 71.3766 6.32374H71.9553C72.3233 6.32374 72.622 6.04374 72.622 5.69874V4.91499C72.622 4.58812 72.3546 4.30874 72.0066 4.28687C71.604 4.26124 71.2006 4.24937 70.7966 4.24999C68.988 4.24999 67.668 5.28562 67.668 7.18687V8.62499H66.3346C65.9666 8.62499 65.668 8.90499 65.668 9.24999V10.5C65.668 10.845 65.9666 11.125 66.3346 11.125L67.668 11.1244V16.125C67.668 16.47 67.9666 16.75 68.3346 16.75H69.668C70.036 16.75 70.3346 16.47 70.3346 16.125V11.1231L71.784 11.1225C72.1226 11.1225 72.4073 10.8844 72.446 10.5687L72.5986 9.32124C72.6446 8.95062 72.3353 8.62499 71.9366 8.62499Z" fill="#504BDD"/>
<ellipse cx="98.5" cy="11" rx="11.5" ry="11" fill="white"/>
<path d="M100.937 8.62499H99.3346V7.37499C99.3346 6.72999 99.3906 6.32374 100.377 6.32374H100.955C101.323 6.32374 101.622 6.04374 101.622 5.69874V4.91499C101.622 4.58812 101.355 4.30874 101.007 4.28687C100.604 4.26124 100.201 4.24937 99.7966 4.24999C97.988 4.24999 96.668 5.28562 96.668 7.18687V8.62499H95.3346C94.9666 8.62499 94.668 8.90499 94.668 9.24999V10.5C94.668 10.845 94.9666 11.125 95.3346 11.125L96.668 11.1244V16.125C96.668 16.47 96.9666 16.75 97.3346 16.75H98.668C99.036 16.75 99.3346 16.47 99.3346 16.125V11.1231L100.784 11.1225C101.123 11.1225 101.407 10.8844 101.446 10.5687L101.599 9.32124C101.645 8.95062 101.335 8.62499 100.937 8.62499Z" fill="#504BDD"/>
</svg>
